<?xml version="1.0" encoding="utf-8"?>
<!-- Generator: Adobe Illustrator 16.2.1, SVG Export Plug-In . SVG Version: 6.00 Build 0)  -->
<!DOCTYPE svg PUBLIC "-//W3C//DTD SVG 1.1//EN" "http://www.w3.org/Graphics/SVG/1.1/DTD/svg11.dtd">
<svg version="1.1" id="Layer_1" xmlns="http://www.w3.org/2000/svg" xmlns:xlink="http://www.w3.org/1999/xlink" x="0px" y="0px"
	 width="100px" height="20px" viewBox="0 0 100 20" enable-background="new 0 0 100 20" xml:space="preserve">
<polygon fill="#FFE133" points="8.955,1.47 11.723,7.077 17.911,7.976 13.433,12.341 14.49,18.504 8.955,15.594 3.421,18.504 
	4.478,12.341 0,7.976 6.188,7.077 "/>
<polygon fill="#FFE133" points="29.478,1.483 32.245,7.09 38.433,7.989 33.956,12.354 35.013,18.518 29.478,15.607 23.943,18.518 
	25,12.354 20.522,7.989 26.71,7.09 "/>
<polygon fill="#FFE133" points="50,1.483 52.768,7.09 58.955,7.989 54.479,12.354 55.535,18.518 50,15.607 44.466,18.518 
	45.522,12.354 41.045,7.989 47.233,7.09 "/>
<polygon fill="#FFE133" points="70.522,1.483 73.29,7.09 79.478,7.989 75.001,12.354 76.058,18.518 70.522,15.607 64.988,18.518 
	66.045,12.354 61.567,7.989 67.756,7.09 "/>
<polygon fill="#FFE133" points="91.045,1.483 93.812,7.09 100,7.989 95.523,12.354 96.58,18.518 91.045,15.607 85.511,18.518 
	86.567,12.354 82.09,7.989 88.278,7.09 "/>
</svg>
