<?xml version="1.0" encoding="UTF-8" standalone="no"?>
<svg width="561px" height="160px" viewBox="0 0 561 160" version="1.1" xmlns="http://www.w3.org/2000/svg" xmlns:xlink="http://www.w3.org/1999/xlink" xmlns:sketch="http://www.bohemiancoding.com/sketch/ns">
    <title>create</title>
    <description>Created with Sketch (http://www.bohemiancoding.com/sketch)</description>
    <defs></defs>
    <g id="Page-1" stroke="none" stroke-width="1" fill="none" fill-rule="evenodd" sketch:type="MSPage">
        <circle d="M80,160 C124.182782,160 160,124.182782 160,80 C160,35.8172178 124.182782,0 80,0 C35.8172178,0 0,35.8172178 0,80 C0,124.182782 35.8172178,160 80,160 Z M80,160" id="Oval-1" fill="#FAE309" sketch:type="MSShapeGroup" cx="80" cy="80" r="80"></circle>
        <circle d="M481,160 C525.182782,160 561,124.182782 561,80 C561,35.8172178 525.182782,0 481,0 C436.817218,0 401,35.8172178 401,80 C401,124.182782 436.817218,160 481,160 Z M481,160" id="Oval-1" fill="#31DCB5" sketch:type="MSShapeGroup" cx="481" cy="80" r="80"></circle>
        <circle d="M280,160 C324.182782,160 360,124.182782 360,80 C360,35.8172178 324.182782,0 280,0 C235.817218,0 200,35.8172178 200,80 C200,124.182782 235.817218,160 280,160 Z M280,160" id="Oval-1" fill="#B000DA" sketch:type="MSShapeGroup" cx="280" cy="80" r="80"></circle>
        <text id="CREATE" fill="#FFFFFF" sketch:type="MSTextLayer" font-family="Avenir" font-size="26" font-weight="420" sketch:alignment="middle">
            <tspan x="31.5" y="89">CREATE</tspan>
        </text>
        <text id="BEAUTIFUL" fill="#FFFFFF" sketch:type="MSTextLayer" font-family="Avenir" font-size="26" font-weight="420" sketch:alignment="middle">
            <tspan x="211" y="89">BEAUTIFUL</tspan>
        </text>
        <text id="WEBSITES" fill="#FFFFFF" sketch:type="MSTextLayer" font-family="Avenir" font-size="26" font-weight="420" sketch:alignment="middle">
            <tspan x="419" y="89">WEBSITES</tspan>
        </text>
    </g>
</svg>